# xmcd
#
# Track frame offsets: 
#        160
#        18540
#        37638
#        56317
#        71215
#        88427
#        107074
#        127928
#        138760
#        154474
#        171759
#        191801
#
# Disc length: 2728 seconds
#
# Revision: 0
# Processed by: cddbd v1.5.2PL0 Copyright (c) Steve Scherf et al.
# Submitted via: ExactAudioCopy v0.99pb4
#
DISCID=a20aa60c
DTITLE=Леприконсы - Нам с тобой было SUPER
DYEAR=2000
DGENRE=Pop
TTITLE0=Хали-гали, паратруппер
TTITLE1=Лена
TTITLE2=Москвич
TTITLE3=Липа-Облепиха
TTITLE4=Магазин "Колбасы"
TTITLE5=Она - одна
TTITLE6=Ла-ла-ла
TTITLE7=Я - неготив
TTITLE8=Аккордион
TTITLE9=Ванька-Встанька
TTITLE10=Дочка-Новорусская
TTITLE11=Ну и что
EXTD=
EXTT0=
EXTT1=
EXTT2=
EXTT3=
EXTT4=
EXTT5=
EXTT6=
EXTT7=
EXTT8=
EXTT9=
EXTT10=
EXTT11=
PLAYORDER=
